<svg width="526" height="278" viewBox="0 0 526 278" fill="none" xmlns="http://www.w3.org/2000/svg">
<mask id="path-1-outside-1_9_133" maskUnits="userSpaceOnUse" x="-0.807129" y="-0.120117" width="527" height="279" fill="black">
<rect fill="white" x="-0.807129" y="-0.120117" width="527" height="279"/>
<path d="M90.4999 2.60007C90.4999 2.95007 90.1499 6.35007 89.7499 10.1501C89.0999 16.7001 88.8999 17.4001 86.5499 22.4001C85.1999 25.3501 83.7499 29.0001 83.3499 30.5001C80.5499 40.9001 74.6999 59.1501 66.7499 82.2501C61.2499 98.1501 56.8999 113.35 48.8999 144.25C46.1999 154.8 40.6999 179.75 39.6999 186C39.2499 188.9 38.2499 194.4 37.3999 198.25C35.1999 208.65 34.5499 212.5 34.4999 214.85C34.4999 216.05 34.3499 217 34.1499 217C33.8999 217 30.8499 217.35 27.2499 217.75C23.6999 218.15 16.4999 218.5 11.2999 218.5C6.09989 218.5 1.99989 218.65 2.19989 218.85C2.69989 219.4 4.64989 220.15 27.4999 228.55C36.9499 232.05 53.1999 235.6 67.4999 237.3C74.1499 238.1 85.2999 238.2 199 238.5C285.65 238.75 324.9 239 328.75 239.4C336.15 240.15 349.35 242.1 350 242.5C350.4 242.75 350.25 243.8 349.55 245.9C348.35 249.35 348.35 249.5 348.9 249.5C349.15 249.5 349.75 248.15 350.25 246.5C350.75 244.8 351.35 243.35 351.55 243.2C352.05 242.9 358.5 244.55 362.7 246C365.85 247.05 368 247.3 368 246.55C368 246.3 364.85 245.05 361 243.75C357.15 242.4 353.65 241.1 353.2 240.75C352.5 240.25 352.6 239.7 354.25 235.7C357.45 228 370.15 199.75 376.1 187.25C379.25 180.65 382.35 174 383 172.45L384.25 169.65L393.2 169.3C398.15 169.15 404.9 169 408.3 169H414.45L410.4 176.1C403.2 188.95 394.4 205.55 389.5 215.75C383.5 228.1 377.5 241.5 377.5 242.5C377.5 243.6 378.2 242.55 379.75 239C388.65 218.5 394.4 206.95 409.45 179.65L415.25 169.1L420.25 168.8C423 168.6 438.2 168.15 454 167.75C488.2 166.85 504.75 165.8 513.9 163.95C515.4 163.65 516.65 163.5 516.8 163.6C516.9 163.75 513.2 166.25 508.6 169.2C504 172.15 497.9 176.1 495 178C492.1 179.85 483.55 185.25 476 190C462.2 198.65 448.95 207.3 437.75 215C434.45 217.25 429.3 220.8 426.25 222.9C401.95 239.55 392.2 247.4 385.55 255.75C381.55 260.7 379 266.85 378.25 273.25C377.7 277.6 378.4 276.35 379.5 271C382 258.8 388.95 250.6 409.6 235.65C419.5 228.45 448.5 208.6 458.75 202C464 198.65 469.4 195.15 470.75 194.25C472.15 193.35 476.5 190.6 480.5 188.15C484.5 185.7 494.95 179 503.75 173.25C512.55 167.55 520.45 162.7 521.3 162.5C523.2 162.05 524 161.6 524 160.95C524 160.2 522.35 160.45 520.75 161.4C516.05 164.25 494.4 166.05 453 167C440.75 167.25 427.4 167.65 423.3 167.85L415.85 168.15L417.35 165.45C418.2 163.95 419.7 161.15 420.75 159.25C421.8 157.3 424.7 152.25 427.2 148C431.1 141.3 432.4 139.6 436.65 135.35C439.35 132.6 441.45 130.25 441.25 130.1C441.1 129.95 438.75 132.05 436.05 134.75C430.8 140.1 427.95 144.45 420.25 158.55C418.05 162.6 415.9 166.35 415.5 166.95C414.8 167.95 414.2 168 399.8 168.3C387 168.6 384.85 168.55 385.1 167.95C390.75 154.35 397.5 139.95 401.35 133.35C402.6 131.2 403.5 129.35 403.4 129.2C402.65 128.5 393.9 145.45 388.85 157.25C387.35 160.8 385.6 164.8 385.05 166.05L384 168.4L374.4 168.65C342.4 169.6 329.9 170.15 310 171.5C286.25 173.1 279.55 173.65 269.25 174.75C265.7 175.15 261.9 175.5 260.9 175.5H259L258.9 167.6L258.8 159.75L258.5 167.75C258.3 172.15 258.1 175.8 258.05 175.8C258.05 175.85 255.15 176.15 251.65 176.45C248.1 176.8 244.65 177.15 243.9 177.3L242.5 177.6L242.45 169.4C242.35 160.85 242.3 160.95 241 172.15C240.4 176.95 240.25 177.55 239.3 177.7C238.7 177.8 233.3 178.5 227.25 179.2C221.2 179.95 215.3 180.65 214.15 180.85C212.1 181.1 212 181.1 212 179.8C212 179.1 211.8 178.5 211.5 178.5C211.25 178.5 211 178.9 211 179.35C211 179.85 210.8 180.5 210.6 180.8C210.3 181.3 186.6 185 183.85 185C183.2 185 183 184.5 182.95 182.85L182.85 180.75L182.35 183.1C182 184.85 181.6 185.5 180.8 185.65C176.6 186.6 157.95 189.65 157.75 189.4C157.55 189.25 157.2 186.95 156.9 184.3C156.55 181.55 156.1 179.55 155.8 179.65C155.3 179.8 154.3 182.65 152.8 188L152 190.75L143.95 192.15C139.55 192.95 135.8 193.5 135.7 193.35C135.55 193.2 135.5 191.8 135.6 190.2L135.75 187.25L136.15 189.25C136.7 191.95 137 192.7 137.25 192.4C137.65 192 135.9 183.5 135.45 183.5C135.2 183.5 135 185.85 135 188.75C135 191.65 134.85 194 134.65 194C134.4 194 127.95 195.35 120.3 197C112.6 198.65 106.15 199.85 105.95 199.65C105.05 198.65 102.2 177.9 100.5 159.75C99.9499 153.7 99.0499 144.7 98.4999 139.75C96.3499 119.75 94.6999 94.4001 93.9999 70.2501C93.4999 52.5501 92.8999 37.1501 91.9999 19.7001C91.6999 14.4501 91.4999 8.30007 91.4999 6.05007C91.4999 3.70007 91.2999 2.00007 90.9999 2.00007C90.7499 2.00007 90.4999 2.30007 90.4999 2.60007ZM91.7499 28.5501C92.1499 38.8501 92.7999 57.5001 93.2499 70.0001C94.1999 99.1001 95.6499 120.25 98.2499 144.25C98.8999 150.3 99.7999 159.05 100.25 163.75C101.3 174.55 102.8 186.7 104.05 193.75C104.55 196.75 105 199.5 105 199.8C105 200.1 103.15 200.75 100.9 201.2C98.5999 201.7 90.2499 203.65 82.2499 205.6C74.2999 207.5 62.8499 210.2 56.7999 211.55C50.7999 212.9 43.6999 214.55 40.9999 215.25C38.2999 215.95 35.9499 216.5 35.7999 216.5C35.1499 216.5 35.5999 209.95 36.5499 205.75C38.2499 198.05 40.3999 187.4 40.7499 184.5C41.1999 180.95 46.9499 155 49.4999 145.25C57.7999 112.95 62.0999 98.1001 67.9999 81.0001C74.7499 61.3501 80.8499 42.2001 83.8499 31.0001C84.2499 29.5001 85.6999 25.8001 87.0999 22.8001C89.3999 17.9001 90.2499 14.6001 90.4999 9.80007C90.4999 9.55007 90.5999 9.45007 90.7499 9.60007C90.8999 9.70007 91.3499 18.2501 91.7499 28.5501ZM382.25 172.1C379.6 178.05 377.9 181.75 373.1 191.8C370.3 197.55 366.7 205.35 365.1 209.05C363.5 212.75 360 220.6 357.35 226.55C354.7 232.5 352.4 237.95 352.2 238.65C352.05 239.4 351.75 240 351.55 240C350.7 240 341.25 235.65 328 229.1C282.95 206.85 267.75 196.5 261.55 183.8C259.05 178.65 258.55 176.5 259.85 176.5C260.35 176.5 266.4 175.95 273.25 175.25C286.85 173.9 325.1 171.3 343.3 170.5C355.95 169.9 361.5 169.75 374.6 169.6L383.45 169.5L382.25 172.1ZM242 175.75C242 176.7 241.8 177.5 241.5 177.5C240.95 177.5 240.85 176 241.3 174.8C241.8 173.55 242 173.85 242 175.75ZM257.75 179.85C256.75 188.15 255.15 193.25 252.45 196.7C251.6 197.8 251 198 249 198C246.95 198 246.4 197.8 245.75 196.85C244.6 195.1 243 186.9 242.85 182.3L242.75 178.25L248.25 177.7C251.3 177.4 254.7 177.1 255.9 177.1L258.05 177L257.75 179.85ZM239.75 181.35C238.65 190.3 233.25 203.25 228.4 208.75C225.95 211.5 225.9 211.5 223 211.5C220.65 211.5 219.8 211.25 218.8 210.35C217.25 209 214.9 203.05 213.8 197.85C212.9 193.3 211.75 182.6 212.15 182.2C212.35 182 227.6 179.95 237 178.85C237.95 178.75 239.05 178.6 239.45 178.6C240 178.5 240.05 179.1 239.75 181.35ZM242.2 182.85C242.6 188.15 244.15 195.5 245.25 197.2C246.2 198.65 247.9 199.15 250.25 198.7C252.3 198.35 252.95 197.65 254.95 193.75C256.35 191.1 257.15 187.9 258.3 180.75L258.6 178.75L259.55 181.1C263.65 191.55 273.3 200.5 291.5 210.9C307.15 219.8 335.85 234.3 347.3 239.05C349.55 240 351 240.9 351 241.35C351 241.8 350.7 241.95 350.15 241.8C348.15 241.2 336.25 239.5 330.7 239C327.45 238.75 323.65 238.4 322.25 238.25C320.9 238.05 263.95 237.75 195.75 237.55C63.5499 237.15 69.1999 237.25 55.1499 234.8C46.4499 233.25 33.6999 230.05 27.4999 227.85C24.0499 226.6 18.7499 224.7 15.6999 223.6C12.6499 222.5 8.89989 221.05 7.44989 220.35L4.74989 219.1L14.4999 219.05C23.1999 219 31.1499 218.45 33.6499 217.7C34.7999 217.35 34.7499 218.8 33.4999 223.25C32.4999 226.85 32.2999 227.85 32.7499 227.4C33.0499 227.15 34.5999 221.75 35.1999 218.9C35.5499 217.3 35.0499 217.45 50.2499 213.95C56.2999 212.6 67.7999 209.9 75.7499 208C95.2499 203.3 105.2 201.05 105.4 201.25C105.5 201.35 105.9 203.4 106.35 205.8C107.7 213.7 111.75 225.5 113.1 225.5C113.3 225.5 112.85 224.2 112.05 222.6C110.1 218.7 108.15 212.3 107.05 206.1L106.15 201L107.2 200.75C110.55 199.95 134.05 195 134.5 195C134.8 195 135 196.25 135 197.85C135.05 205.3 136.55 214.55 139.1 222.9C140.45 227.45 141.9 229.1 144.15 228.9L145.75 228.75L146.1 223.5C146.3 220.6 146.7 216.75 147 214.9C147.6 210.9 151.85 193 152.45 192.1C152.65 191.75 153.8 191.4 155 191.35L157.15 191.25L157.85 195.25C158.5 199 160.1 203.25 161.6 205.05C163.25 207.05 165.7 208 169.3 208C172.5 208 172.95 207.85 174.15 206.6C175.95 204.7 178.75 198.6 180.7 192.25L182.35 186.85L182.65 191.8C183.05 197.2 184.8 204.55 186.85 209.1C188.6 213.05 191.35 215.5 194.05 215.5C196.65 215.5 197.8 214.25 201 208C203.75 202.7 209.75 187.75 210.25 184.85C210.75 182.25 211.5 182 211.5 184.45C211.5 187.3 212.9 197.15 213.8 200.75C214.9 204.9 217.7 210.8 218.9 211.45C219.45 211.75 221.4 212 223.15 212H226.4L228.6 209.6C231.05 206.8 234.55 200.9 236.35 196.4C237.95 192.55 240.5 182.45 240.5 180.2C240.5 179.1 240.75 178.5 241.2 178.5C241.65 178.5 241.95 179.7 242.2 182.85ZM156.45 185.45C156.75 187.75 156.95 189.7 156.9 189.8C156.8 189.85 155.9 190.05 154.9 190.25C153.35 190.55 153 190.45 153 189.85C153 188.9 155.5 180.85 155.75 181.1C155.8 181.15 156.15 183.15 156.45 185.45ZM210 183.25C210 185.6 203.5 202.25 200.25 208.25C197.35 213.55 196.05 215 194.1 215C190.45 215 187.5 210.9 185.25 202.75C183.8 197.5 182.55 187.25 183.3 186.5C183.75 186.05 205.4 182.7 208.65 182.55C209.5 182.5 210 182.75 210 183.25ZM181.5 187.3C181.5 187.7 180.7 190.45 179.7 193.4C177.6 199.65 174.3 206.3 172.85 207.05C172.3 207.35 170.35 207.5 168.55 207.4C164.5 207.2 162.5 205.95 160.75 202.55C159.5 200 158 194.35 158 192.05C158 190.65 158.1 190.6 162.65 189.8C165.15 189.35 170.2 188.45 173.75 187.8C181.75 186.3 181.5 186.35 181.5 187.3ZM149.05 202.6C146.75 212.25 145.75 218.7 145.4 225.75C145.25 227.9 145.1 228.25 144.15 228.4C141.4 228.8 139.75 225.05 137.3 213C136 206.4 135.2 195.25 136.05 194.7C136.6 194.4 151.15 191.6 151.4 191.8C151.5 191.85 150.45 196.7 149.05 202.6ZM355.7 242.55C357.25 243.15 358.45 243.7 358.35 243.8C358.05 244.1 352 242.35 352 241.95C352 241.3 352.65 241.4 355.7 242.55Z"/>
</mask>
<path d="M90.4999 2.60007C90.4999 2.95007 90.1499 6.35007 89.7499 10.1501C89.0999 16.7001 88.8999 17.4001 86.5499 22.4001C85.1999 25.3501 83.7499 29.0001 83.3499 30.5001C80.5499 40.9001 74.6999 59.1501 66.7499 82.2501C61.2499 98.1501 56.8999 113.35 48.8999 144.25C46.1999 154.8 40.6999 179.75 39.6999 186C39.2499 188.9 38.2499 194.4 37.3999 198.25C35.1999 208.65 34.5499 212.5 34.4999 214.85C34.4999 216.05 34.3499 217 34.1499 217C33.8999 217 30.8499 217.35 27.2499 217.75C23.6999 218.15 16.4999 218.5 11.2999 218.5C6.09989 218.5 1.99989 218.65 2.19989 218.85C2.69989 219.4 4.64989 220.15 27.4999 228.55C36.9499 232.05 53.1999 235.6 67.4999 237.3C74.1499 238.1 85.2999 238.2 199 238.5C285.65 238.75 324.9 239 328.75 239.4C336.15 240.15 349.35 242.1 350 242.5C350.4 242.75 350.25 243.8 349.55 245.9C348.35 249.35 348.35 249.5 348.9 249.5C349.15 249.5 349.75 248.15 350.25 246.5C350.75 244.8 351.35 243.35 351.55 243.2C352.05 242.9 358.5 244.55 362.7 246C365.85 247.05 368 247.3 368 246.55C368 246.3 364.85 245.05 361 243.75C357.15 242.4 353.65 241.1 353.2 240.75C352.5 240.25 352.6 239.7 354.25 235.7C357.45 228 370.15 199.75 376.1 187.25C379.25 180.65 382.35 174 383 172.45L384.25 169.65L393.2 169.3C398.15 169.15 404.9 169 408.3 169H414.45L410.4 176.1C403.2 188.95 394.4 205.55 389.5 215.75C383.5 228.1 377.5 241.5 377.5 242.5C377.5 243.6 378.2 242.55 379.75 239C388.65 218.5 394.4 206.95 409.45 179.65L415.25 169.1L420.25 168.8C423 168.6 438.2 168.15 454 167.75C488.2 166.85 504.75 165.8 513.9 163.95C515.4 163.65 516.65 163.5 516.8 163.6C516.9 163.75 513.2 166.25 508.6 169.2C504 172.15 497.9 176.1 495 178C492.1 179.85 483.55 185.25 476 190C462.2 198.65 448.95 207.3 437.75 215C434.45 217.25 429.3 220.8 426.25 222.9C401.95 239.55 392.2 247.4 385.55 255.75C381.55 260.7 379 266.85 378.25 273.25C377.7 277.6 378.4 276.35 379.5 271C382 258.8 388.95 250.6 409.6 235.65C419.5 228.45 448.5 208.6 458.75 202C464 198.65 469.4 195.15 470.75 194.25C472.15 193.35 476.5 190.6 480.5 188.15C484.5 185.7 494.95 179 503.75 173.25C512.55 167.55 520.45 162.7 521.3 162.5C523.2 162.05 524 161.6 524 160.95C524 160.2 522.35 160.45 520.75 161.4C516.05 164.25 494.4 166.05 453 167C440.75 167.25 427.4 167.65 423.3 167.85L415.85 168.15L417.35 165.45C418.2 163.95 419.7 161.15 420.75 159.25C421.8 157.3 424.7 152.25 427.2 148C431.1 141.3 432.4 139.6 436.65 135.35C439.35 132.6 441.45 130.25 441.25 130.1C441.1 129.95 438.75 132.05 436.05 134.75C430.8 140.1 427.95 144.45 420.25 158.55C418.05 162.6 415.9 166.35 415.5 166.95C414.8 167.95 414.2 168 399.8 168.3C387 168.6 384.85 168.55 385.1 167.95C390.75 154.35 397.5 139.95 401.35 133.35C402.6 131.2 403.5 129.35 403.4 129.2C402.65 128.5 393.9 145.45 388.85 157.25C387.35 160.8 385.6 164.8 385.05 166.05L384 168.4L374.4 168.65C342.4 169.6 329.9 170.15 310 171.5C286.25 173.1 279.55 173.65 269.25 174.75C265.7 175.15 261.9 175.5 260.9 175.5H259L258.9 167.6L258.8 159.75L258.5 167.75C258.3 172.15 258.1 175.8 258.05 175.8C258.05 175.85 255.15 176.15 251.65 176.45C248.1 176.8 244.65 177.15 243.9 177.3L242.5 177.6L242.45 169.4C242.35 160.85 242.3 160.95 241 172.15C240.4 176.95 240.25 177.55 239.3 177.7C238.7 177.8 233.3 178.5 227.25 179.2C221.2 179.95 215.3 180.65 214.15 180.85C212.1 181.1 212 181.1 212 179.8C212 179.1 211.8 178.5 211.5 178.5C211.25 178.5 211 178.9 211 179.35C211 179.85 210.8 180.5 210.6 180.8C210.3 181.3 186.6 185 183.85 185C183.2 185 183 184.5 182.95 182.85L182.85 180.75L182.35 183.1C182 184.85 181.6 185.5 180.8 185.65C176.6 186.6 157.95 189.65 157.75 189.4C157.55 189.25 157.2 186.95 156.9 184.3C156.55 181.55 156.1 179.55 155.8 179.65C155.3 179.8 154.3 182.65 152.8 188L152 190.75L143.95 192.15C139.55 192.95 135.8 193.5 135.7 193.35C135.55 193.2 135.5 191.8 135.6 190.2L135.75 187.25L136.15 189.25C136.7 191.95 137 192.7 137.25 192.4C137.65 192 135.9 183.5 135.45 183.5C135.2 183.5 135 185.85 135 188.75C135 191.65 134.85 194 134.65 194C134.4 194 127.95 195.35 120.3 197C112.6 198.65 106.15 199.85 105.95 199.65C105.05 198.65 102.2 177.9 100.5 159.75C99.9499 153.7 99.0499 144.7 98.4999 139.75C96.3499 119.75 94.6999 94.4001 93.9999 70.2501C93.4999 52.5501 92.8999 37.1501 91.9999 19.7001C91.6999 14.4501 91.4999 8.30007 91.4999 6.05007C91.4999 3.70007 91.2999 2.00007 90.9999 2.00007C90.7499 2.00007 90.4999 2.30007 90.4999 2.60007ZM91.7499 28.5501C92.1499 38.8501 92.7999 57.5001 93.2499 70.0001C94.1999 99.1001 95.6499 120.25 98.2499 144.25C98.8999 150.3 99.7999 159.05 100.25 163.75C101.3 174.55 102.8 186.7 104.05 193.75C104.55 196.75 105 199.5 105 199.8C105 200.1 103.15 200.75 100.9 201.2C98.5999 201.7 90.2499 203.65 82.2499 205.6C74.2999 207.5 62.8499 210.2 56.7999 211.55C50.7999 212.9 43.6999 214.55 40.9999 215.25C38.2999 215.95 35.9499 216.5 35.7999 216.5C35.1499 216.5 35.5999 209.95 36.5499 205.75C38.2499 198.05 40.3999 187.4 40.7499 184.5C41.1999 180.95 46.9499 155 49.4999 145.25C57.7999 112.95 62.0999 98.1001 67.9999 81.0001C74.7499 61.3501 80.8499 42.2001 83.8499 31.0001C84.2499 29.5001 85.6999 25.8001 87.0999 22.8001C89.3999 17.9001 90.2499 14.6001 90.4999 9.80007C90.4999 9.55007 90.5999 9.45007 90.7499 9.60007C90.8999 9.70007 91.3499 18.2501 91.7499 28.5501ZM382.25 172.1C379.6 178.05 377.9 181.75 373.1 191.8C370.3 197.55 366.7 205.35 365.1 209.05C363.5 212.75 360 220.6 357.35 226.55C354.7 232.5 352.4 237.95 352.2 238.65C352.05 239.4 351.75 240 351.55 240C350.7 240 341.25 235.65 328 229.1C282.95 206.85 267.75 196.5 261.55 183.8C259.05 178.65 258.55 176.5 259.85 176.5C260.35 176.5 266.4 175.95 273.25 175.25C286.85 173.9 325.1 171.3 343.3 170.5C355.95 169.9 361.5 169.75 374.6 169.6L383.45 169.5L382.25 172.1ZM242 175.75C242 176.7 241.8 177.5 241.5 177.5C240.95 177.5 240.85 176 241.3 174.8C241.8 173.55 242 173.85 242 175.75ZM257.75 179.85C256.75 188.15 255.15 193.25 252.45 196.7C251.6 197.8 251 198 249 198C246.95 198 246.4 197.8 245.75 196.85C244.6 195.1 243 186.9 242.85 182.3L242.75 178.25L248.25 177.7C251.3 177.4 254.7 177.1 255.9 177.1L258.05 177L257.75 179.85ZM239.75 181.35C238.65 190.3 233.25 203.25 228.4 208.75C225.95 211.5 225.9 211.5 223 211.5C220.65 211.5 219.8 211.25 218.8 210.35C217.25 209 214.9 203.05 213.8 197.85C212.9 193.3 211.75 182.6 212.15 182.2C212.35 182 227.6 179.95 237 178.85C237.95 178.75 239.05 178.6 239.45 178.6C240 178.5 240.05 179.1 239.75 181.35ZM242.2 182.85C242.6 188.15 244.15 195.5 245.25 197.2C246.2 198.65 247.9 199.15 250.25 198.7C252.3 198.35 252.95 197.65 254.95 193.75C256.35 191.1 257.15 187.9 258.3 180.75L258.6 178.75L259.55 181.1C263.65 191.55 273.3 200.5 291.5 210.9C307.15 219.8 335.85 234.3 347.3 239.05C349.55 240 351 240.9 351 241.35C351 241.8 350.7 241.95 350.15 241.8C348.15 241.2 336.25 239.5 330.7 239C327.45 238.75 323.65 238.4 322.25 238.25C320.9 238.05 263.95 237.75 195.75 237.55C63.5499 237.15 69.1999 237.25 55.1499 234.8C46.4499 233.25 33.6999 230.05 27.4999 227.85C24.0499 226.6 18.7499 224.7 15.6999 223.6C12.6499 222.5 8.89989 221.05 7.44989 220.35L4.74989 219.1L14.4999 219.05C23.1999 219 31.1499 218.45 33.6499 217.7C34.7999 217.35 34.7499 218.8 33.4999 223.25C32.4999 226.85 32.2999 227.85 32.7499 227.4C33.0499 227.15 34.5999 221.75 35.1999 218.9C35.5499 217.3 35.0499 217.45 50.2499 213.95C56.2999 212.6 67.7999 209.9 75.7499 208C95.2499 203.3 105.2 201.05 105.4 201.25C105.5 201.35 105.9 203.4 106.35 205.8C107.7 213.7 111.75 225.5 113.1 225.5C113.3 225.5 112.85 224.2 112.05 222.6C110.1 218.7 108.15 212.3 107.05 206.1L106.15 201L107.2 200.75C110.55 199.95 134.05 195 134.5 195C134.8 195 135 196.25 135 197.85C135.05 205.3 136.55 214.55 139.1 222.9C140.45 227.45 141.9 229.1 144.15 228.9L145.75 228.75L146.1 223.5C146.3 220.6 146.7 216.75 147 214.9C147.6 210.9 151.85 193 152.45 192.1C152.65 191.75 153.8 191.4 155 191.35L157.15 191.25L157.85 195.25C158.5 199 160.1 203.25 161.6 205.05C163.25 207.05 165.7 208 169.3 208C172.5 208 172.95 207.85 174.15 206.6C175.95 204.7 178.75 198.6 180.7 192.25L182.35 186.85L182.65 191.8C183.05 197.2 184.8 204.55 186.85 209.1C188.6 213.05 191.35 215.5 194.05 215.5C196.65 215.5 197.8 214.25 201 208C203.75 202.7 209.75 187.75 210.25 184.85C210.75 182.25 211.5 182 211.5 184.45C211.5 187.3 212.9 197.15 213.8 200.75C214.9 204.9 217.7 210.8 218.9 211.45C219.45 211.75 221.4 212 223.15 212H226.4L228.6 209.6C231.05 206.8 234.55 200.9 236.35 196.4C237.95 192.55 240.5 182.45 240.5 180.2C240.5 179.1 240.75 178.5 241.2 178.5C241.65 178.5 241.95 179.7 242.2 182.85ZM156.45 185.45C156.75 187.75 156.95 189.7 156.9 189.8C156.8 189.85 155.9 190.05 154.9 190.25C153.35 190.55 153 190.45 153 189.85C153 188.9 155.5 180.85 155.75 181.1C155.8 181.15 156.15 183.15 156.45 185.45ZM210 183.25C210 185.6 203.5 202.25 200.25 208.25C197.35 213.55 196.05 215 194.1 215C190.45 215 187.5 210.9 185.25 202.75C183.8 197.5 182.55 187.25 183.3 186.5C183.75 186.05 205.4 182.7 208.65 182.55C209.5 182.5 210 182.75 210 183.25ZM181.5 187.3C181.5 187.7 180.7 190.45 179.7 193.4C177.6 199.65 174.3 206.3 172.85 207.05C172.3 207.35 170.35 207.5 168.55 207.4C164.5 207.2 162.5 205.95 160.75 202.55C159.5 200 158 194.35 158 192.05C158 190.65 158.1 190.6 162.65 189.8C165.15 189.35 170.2 188.45 173.75 187.8C181.75 186.3 181.5 186.35 181.5 187.3ZM149.05 202.6C146.75 212.25 145.75 218.7 145.4 225.75C145.25 227.9 145.1 228.25 144.15 228.4C141.4 228.8 139.75 225.05 137.3 213C136 206.4 135.2 195.25 136.05 194.7C136.6 194.4 151.15 191.6 151.4 191.8C151.5 191.85 150.45 196.7 149.05 202.6ZM355.7 242.55C357.25 243.15 358.45 243.7 358.35 243.8C358.05 244.1 352 242.35 352 241.95C352 241.3 352.65 241.4 355.7 242.55Z" fill="white"/>
<path d="M90.4999 2.60007C90.4999 2.95007 90.1499 6.35007 89.7499 10.1501C89.0999 16.7001 88.8999 17.4001 86.5499 22.4001C85.1999 25.3501 83.7499 29.0001 83.3499 30.5001C80.5499 40.9001 74.6999 59.1501 66.7499 82.2501C61.2499 98.1501 56.8999 113.35 48.8999 144.25C46.1999 154.8 40.6999 179.75 39.6999 186C39.2499 188.9 38.2499 194.4 37.3999 198.25C35.1999 208.65 34.5499 212.5 34.4999 214.85C34.4999 216.05 34.3499 217 34.1499 217C33.8999 217 30.8499 217.35 27.2499 217.75C23.6999 218.15 16.4999 218.5 11.2999 218.5C6.09989 218.5 1.99989 218.65 2.19989 218.85C2.69989 219.4 4.64989 220.15 27.4999 228.55C36.9499 232.05 53.1999 235.6 67.4999 237.3C74.1499 238.1 85.2999 238.2 199 238.5C285.65 238.75 324.9 239 328.75 239.4C336.15 240.15 349.35 242.1 350 242.5C350.4 242.75 350.25 243.8 349.55 245.9C348.35 249.35 348.35 249.5 348.9 249.5C349.15 249.5 349.75 248.15 350.25 246.5C350.75 244.8 351.35 243.35 351.55 243.2C352.05 242.9 358.5 244.55 362.7 246C365.85 247.05 368 247.3 368 246.55C368 246.3 364.85 245.05 361 243.75C357.15 242.4 353.65 241.1 353.2 240.75C352.5 240.25 352.6 239.7 354.25 235.7C357.45 228 370.15 199.75 376.1 187.25C379.25 180.65 382.35 174 383 172.45L384.25 169.65L393.2 169.3C398.15 169.15 404.9 169 408.3 169H414.45L410.4 176.1C403.2 188.95 394.4 205.55 389.5 215.75C383.5 228.1 377.5 241.5 377.5 242.5C377.5 243.6 378.2 242.55 379.75 239C388.65 218.5 394.4 206.95 409.45 179.65L415.25 169.1L420.25 168.8C423 168.6 438.2 168.15 454 167.75C488.2 166.85 504.75 165.8 513.9 163.95C515.4 163.65 516.65 163.5 516.8 163.6C516.9 163.75 513.2 166.25 508.6 169.2C504 172.15 497.9 176.1 495 178C492.1 179.85 483.55 185.25 476 190C462.2 198.65 448.95 207.3 437.75 215C434.45 217.25 429.3 220.8 426.25 222.9C401.95 239.55 392.2 247.4 385.55 255.75C381.55 260.7 379 266.85 378.25 273.25C377.7 277.6 378.4 276.35 379.5 271C382 258.8 388.95 250.6 409.6 235.65C419.5 228.45 448.5 208.6 458.75 202C464 198.65 469.4 195.15 470.75 194.25C472.15 193.35 476.5 190.6 480.5 188.15C484.5 185.7 494.95 179 503.75 173.25C512.55 167.55 520.45 162.7 521.3 162.5C523.2 162.05 524 161.6 524 160.95C524 160.2 522.35 160.45 520.75 161.4C516.05 164.25 494.4 166.05 453 167C440.75 167.25 427.4 167.65 423.3 167.85L415.85 168.15L417.35 165.45C418.2 163.95 419.7 161.15 420.75 159.25C421.8 157.3 424.7 152.25 427.2 148C431.1 141.3 432.4 139.6 436.65 135.35C439.35 132.6 441.45 130.25 441.25 130.1C441.1 129.95 438.75 132.05 436.05 134.75C430.8 140.1 427.95 144.45 420.25 158.55C418.05 162.6 415.9 166.35 415.5 166.95C414.8 167.95 414.2 168 399.8 168.3C387 168.6 384.85 168.55 385.1 167.95C390.75 154.35 397.5 139.95 401.35 133.35C402.6 131.2 403.5 129.35 403.4 129.2C402.65 128.5 393.9 145.45 388.85 157.25C387.35 160.8 385.6 164.8 385.05 166.05L384 168.4L374.4 168.65C342.4 169.6 329.9 170.15 310 171.5C286.25 173.1 279.55 173.65 269.25 174.75C265.7 175.15 261.9 175.5 260.9 175.5H259L258.9 167.6L258.8 159.75L258.5 167.75C258.3 172.15 258.1 175.8 258.05 175.8C258.05 175.85 255.15 176.15 251.65 176.45C248.1 176.8 244.65 177.15 243.9 177.3L242.5 177.6L242.45 169.4C242.35 160.85 242.3 160.95 241 172.15C240.4 176.95 240.25 177.55 239.3 177.7C238.7 177.8 233.3 178.5 227.25 179.2C221.2 179.95 215.3 180.65 214.15 180.85C212.1 181.1 212 181.1 212 179.8C212 179.1 211.8 178.5 211.5 178.5C211.25 178.5 211 178.9 211 179.35C211 179.85 210.8 180.5 210.6 180.8C210.3 181.3 186.6 185 183.85 185C183.2 185 183 184.5 182.95 182.85L182.85 180.75L182.35 183.1C182 184.85 181.6 185.5 180.8 185.65C176.6 186.6 157.95 189.65 157.75 189.4C157.55 189.25 157.2 186.95 156.9 184.3C156.55 181.55 156.1 179.55 155.8 179.65C155.3 179.8 154.3 182.65 152.8 188L152 190.75L143.95 192.15C139.55 192.95 135.8 193.5 135.7 193.35C135.55 193.2 135.5 191.8 135.6 190.2L135.75 187.25L136.15 189.25C136.7 191.95 137 192.7 137.25 192.4C137.65 192 135.9 183.5 135.45 183.5C135.2 183.5 135 185.85 135 188.75C135 191.65 134.85 194 134.65 194C134.4 194 127.95 195.35 120.3 197C112.6 198.65 106.15 199.85 105.95 199.65C105.05 198.65 102.2 177.9 100.5 159.75C99.9499 153.7 99.0499 144.7 98.4999 139.75C96.3499 119.75 94.6999 94.4001 93.9999 70.2501C93.4999 52.5501 92.8999 37.1501 91.9999 19.7001C91.6999 14.4501 91.4999 8.30007 91.4999 6.05007C91.4999 3.70007 91.2999 2.00007 90.9999 2.00007C90.7499 2.00007 90.4999 2.30007 90.4999 2.60007ZM91.7499 28.5501C92.1499 38.8501 92.7999 57.5001 93.2499 70.0001C94.1999 99.1001 95.6499 120.25 98.2499 144.25C98.8999 150.3 99.7999 159.05 100.25 163.75C101.3 174.55 102.8 186.7 104.05 193.75C104.55 196.75 105 199.5 105 199.8C105 200.1 103.15 200.75 100.9 201.2C98.5999 201.7 90.2499 203.65 82.2499 205.6C74.2999 207.5 62.8499 210.2 56.7999 211.55C50.7999 212.9 43.6999 214.55 40.9999 215.25C38.2999 215.95 35.9499 216.5 35.7999 216.5C35.1499 216.5 35.5999 209.95 36.5499 205.75C38.2499 198.05 40.3999 187.4 40.7499 184.5C41.1999 180.95 46.9499 155 49.4999 145.25C57.7999 112.95 62.0999 98.1001 67.9999 81.0001C74.7499 61.3501 80.8499 42.2001 83.8499 31.0001C84.2499 29.5001 85.6999 25.8001 87.0999 22.8001C89.3999 17.9001 90.2499 14.6001 90.4999 9.80007C90.4999 9.55007 90.5999 9.45007 90.7499 9.60007C90.8999 9.70007 91.3499 18.2501 91.7499 28.5501ZM382.25 172.1C379.6 178.05 377.9 181.75 373.1 191.8C370.3 197.55 366.7 205.35 365.1 209.05C363.5 212.75 360 220.6 357.35 226.55C354.7 232.5 352.4 237.95 352.2 238.65C352.05 239.4 351.75 240 351.55 240C350.7 240 341.25 235.65 328 229.1C282.95 206.85 267.75 196.5 261.55 183.8C259.05 178.65 258.55 176.5 259.85 176.5C260.35 176.5 266.4 175.95 273.25 175.25C286.85 173.9 325.1 171.3 343.3 170.5C355.95 169.9 361.5 169.75 374.6 169.6L383.45 169.5L382.25 172.1ZM242 175.75C242 176.7 241.8 177.5 241.5 177.5C240.95 177.5 240.85 176 241.3 174.8C241.8 173.55 242 173.85 242 175.75ZM257.75 179.85C256.75 188.15 255.15 193.25 252.45 196.7C251.6 197.8 251 198 249 198C246.95 198 246.4 197.8 245.75 196.85C244.6 195.1 243 186.9 242.85 182.3L242.75 178.25L248.25 177.7C251.3 177.4 254.7 177.1 255.9 177.1L258.05 177L257.75 179.85ZM239.75 181.35C238.65 190.3 233.25 203.25 228.4 208.75C225.95 211.5 225.9 211.5 223 211.5C220.65 211.5 219.8 211.25 218.8 210.35C217.25 209 214.9 203.05 213.8 197.85C212.9 193.3 211.75 182.6 212.15 182.2C212.35 182 227.6 179.95 237 178.85C237.95 178.75 239.05 178.6 239.45 178.6C240 178.5 240.05 179.1 239.75 181.35ZM242.2 182.85C242.6 188.15 244.15 195.5 245.25 197.2C246.2 198.65 247.9 199.15 250.25 198.7C252.3 198.35 252.95 197.65 254.95 193.75C256.35 191.1 257.15 187.9 258.3 180.75L258.6 178.75L259.55 181.1C263.65 191.55 273.3 200.5 291.5 210.9C307.15 219.8 335.85 234.3 347.3 239.05C349.55 240 351 240.9 351 241.35C351 241.8 350.7 241.95 350.15 241.8C348.15 241.2 336.25 239.5 330.7 239C327.45 238.75 323.65 238.4 322.25 238.25C320.9 238.05 263.95 237.75 195.75 237.55C63.5499 237.15 69.1999 237.25 55.1499 234.8C46.4499 233.25 33.6999 230.05 27.4999 227.85C24.0499 226.6 18.7499 224.7 15.6999 223.6C12.6499 222.5 8.89989 221.05 7.44989 220.35L4.74989 219.1L14.4999 219.05C23.1999 219 31.1499 218.45 33.6499 217.7C34.7999 217.35 34.7499 218.8 33.4999 223.25C32.4999 226.85 32.2999 227.85 32.7499 227.4C33.0499 227.15 34.5999 221.75 35.1999 218.9C35.5499 217.3 35.0499 217.45 50.2499 213.95C56.2999 212.6 67.7999 209.9 75.7499 208C95.2499 203.3 105.2 201.05 105.4 201.25C105.5 201.35 105.9 203.4 106.35 205.8C107.7 213.7 111.75 225.5 113.1 225.5C113.3 225.5 112.85 224.2 112.05 222.6C110.1 218.7 108.15 212.3 107.05 206.1L106.15 201L107.2 200.75C110.55 199.95 134.05 195 134.5 195C134.8 195 135 196.25 135 197.85C135.05 205.3 136.55 214.55 139.1 222.9C140.45 227.45 141.9 229.1 144.15 228.9L145.75 228.75L146.1 223.5C146.3 220.6 146.7 216.75 147 214.9C147.6 210.9 151.85 193 152.45 192.1C152.65 191.75 153.8 191.4 155 191.35L157.15 191.25L157.85 195.25C158.5 199 160.1 203.25 161.6 205.05C163.25 207.05 165.7 208 169.3 208C172.5 208 172.95 207.85 174.15 206.6C175.95 204.7 178.75 198.6 180.7 192.25L182.35 186.85L182.65 191.8C183.05 197.2 184.8 204.55 186.85 209.1C188.6 213.05 191.35 215.5 194.05 215.5C196.65 215.5 197.8 214.25 201 208C203.75 202.7 209.75 187.75 210.25 184.85C210.75 182.25 211.5 182 211.5 184.45C211.5 187.3 212.9 197.15 213.8 200.75C214.9 204.9 217.7 210.8 218.9 211.45C219.45 211.75 221.4 212 223.15 212H226.4L228.6 209.6C231.05 206.8 234.55 200.9 236.35 196.4C237.95 192.55 240.5 182.45 240.5 180.2C240.5 179.1 240.75 178.5 241.2 178.5C241.65 178.5 241.95 179.7 242.2 182.85ZM156.45 185.45C156.75 187.75 156.95 189.7 156.9 189.8C156.8 189.85 155.9 190.05 154.9 190.25C153.35 190.55 153 190.45 153 189.85C153 188.9 155.5 180.85 155.75 181.1C155.8 181.15 156.15 183.15 156.45 185.45ZM210 183.25C210 185.6 203.5 202.25 200.25 208.25C197.35 213.55 196.05 215 194.1 215C190.45 215 187.5 210.9 185.25 202.75C183.8 197.5 182.55 187.25 183.3 186.5C183.75 186.05 205.4 182.7 208.65 182.55C209.5 182.5 210 182.75 210 183.25ZM181.5 187.3C181.5 187.7 180.7 190.45 179.7 193.4C177.6 199.65 174.3 206.3 172.85 207.05C172.3 207.35 170.35 207.5 168.55 207.4C164.5 207.2 162.5 205.95 160.75 202.55C159.5 200 158 194.35 158 192.05C158 190.65 158.1 190.6 162.65 189.8C165.15 189.35 170.2 188.45 173.75 187.8C181.75 186.3 181.5 186.35 181.5 187.3ZM149.05 202.6C146.75 212.25 145.75 218.7 145.4 225.75C145.25 227.9 145.1 228.25 144.15 228.4C141.4 228.8 139.75 225.05 137.3 213C136 206.4 135.2 195.25 136.05 194.7C136.6 194.4 151.15 191.6 151.4 191.8C151.5 191.85 150.45 196.7 149.05 202.6ZM355.7 242.55C357.25 243.15 358.45 243.7 358.35 243.8C358.05 244.1 352 242.35 352 241.95C352 241.3 352.65 241.4 355.7 242.55Z" stroke="white" stroke-width="4" mask="url(#path-1-outside-1_9_133)"/>
</svg>
